<?xml version="1.0" standalone="no"?>
<!DOCTYPE svg PUBLIC "-//W3C//DTD SVG 20010904//EN"
 "http://www.w3.org/TR/2001/REC-SVG-20010904/DTD/svg10.dtd">
<svg version="1.0" xmlns="http://www.w3.org/2000/svg"
 width="700.000000pt" height="700.000000pt" viewBox="0 0 700.000000 700.000000"
 preserveAspectRatio="xMidYMid meet">
<metadata>
Created by potrace 1.14, written by Peter Selinger 2001-2017
</metadata>
<g transform="translate(0.000000,700.000000) scale(0.100000,-0.100000)"
fill="#000000" stroke="none">
<path d="M565 6981 c-274 -67 -475 -269 -545 -546 -20 -79 -20 -101 -17 -2960
2 -2656 4 -2884 19 -2933 88 -282 298 -474 577 -528 106 -20 5723 -20 5817 1
142 31 265 97 368 201 106 105 169 223 201 373 13 64 15 413 14 2924 -1 2782
-1 2854 -20 2927 -56 218 -189 384 -388 485 -30 15 -77 34 -105 42 -27 8 -59
18 -70 21 -12 4 -1317 8 -2901 9 -2699 1 -2884 0 -2950 -16z m5790 -282 c113
-21 233 -106 292 -206 14 -25 35 -75 45 -112 17 -63 18 -183 18 -2891 -1
-2429 -3 -2831 -15 -2865 -8 -22 -15 -46 -15 -53 0 -22 -64 -115 -110 -160
-48 -47 -141 -96 -210 -111 -62 -14 -5661 -13 -5720 0 -165 37 -303 175 -340
339 -6 30 -9 1011 -7 2885 l2 2840 23 57 c53 131 156 226 290 268 54 17 207
18 2877 18 1733 1 2839 -3 2870 -9z"/>
<path d="M730 6270 l0 -145 145 0 145 0 0 146 0 147 -145 -1 -145 -1 0 -146z"/>
<path d="M1312 6273 c0 -78 3 -144 6 -144 29 -6 269 -4 277 2 6 4 10 64 10
146 l-1 138 -145 1 -146 1 -1 -144z"/>
<path d="M5980 6271 l0 -146 145 0 145 0 0 145 0 146 -145 1 -145 1 0 -147z"/>
<path d="M585 5830 c-1 -3 -2 -68 -1 -145 l1 -140 2915 0 2915 0 1 143 c1 124
-1 142 -15 143 -69 4 -5814 3 -5816 -1z"/>
<path d="M1899 5248 c-1 -2 -2 -65 -3 -142 -1 -108 1 -139 12 -144 7 -2 959
-5 2115 -6 l2102 -1 0 -2037 c0 -1121 -2 -2039 -5 -2039 -3 -1 -1183 -2 -2622
-3 -1771 -1 -2619 2 -2621 9 -2 5 -3 596 -3 1313 l1 1302 -146 0 -146 0 2
-1347 1 -1348 21 -47 c27 -59 86 -118 149 -149 l49 -24 2695 0 2695 0 50 25
c63 31 114 82 145 145 l24 50 1 2110 0 2110 -21 46 c-30 63 -79 116 -138 147
l-51 27 -2152 3 c-1184 1 -2154 1 -2154 0z"/>
<path d="M875 5106 c-49 -51 -90 -98 -90 -104 0 -7 105 -118 234 -246 l235
-234 -240 -241 -241 -240 96 -95 c53 -53 100 -99 104 -103 10 -9 593 571 613
610 19 35 20 96 4 128 -15 30 -601 619 -615 618 -5 0 -50 -42 -100 -93z"/>
<path d="M1750 4085 c0 -143 0 -145 23 -146 106 -4 836 -1 843 4 5 3 9 68 9
144 l0 138 -438 3 -437 2 0 -145z"/>
</g>
</svg>
